# xmcd
#
# Track frame offsets: 
#        150
#        21507
#        37327
#        49440
#        58960
#        88365
#        105060
#
# Disc length: 1551 seconds
#
# Revision: 2
# Processed by: cddbd v1.5.1PL0 Copyright (c) Steve Scherf et al.
# Submitted via: ExactAudioCopy v0.95a5
#
DISCID=65060d07
DTITLE=Various Artist - The Best Of
DYEAR=1995
DGENRE=Acoustic
TTITLE0=Chet Atkins and Lenny Breau/Sweet Georgia Brown
TTITLE1=Chet Atkins and Jerry Reed/Twitchy
TTITLE2=Chet Atkins and Dolly Parton/Do I Ever Cross Your Mind?
TTITLE3=Chet Atkins, Danny Davis and The Nashville Brass/Sail Along Silv
TTITLE3='ry Moon
TTITLE4=Chet Atkins and Les Paul/Avalon
TTITLE5=Chet Atkins and The Boston Pops Orchestra/The Battle Of New Orle
TTITLE5=ans ~ Sugrarfoot Rag
TTITLE6=Chet Atkins and Boots Randolph/Terry On The Turnpike
EXTD=
EXTT0=
EXTT1=
EXTT2=
EXTT3=
EXTT4=
EXTT5=
EXTT6=
PLAYORDER=
